<?xml version="1.0" encoding="UTF-8"?><svg id="Layer_2" xmlns="http://www.w3.org/2000/svg" viewBox="0 0 271.3 146.6"><g id="Layer_1-2"><path d="m0,71.5c5.71,0,11.3.05,16.9-.02,2.58-.03,3.91,1.51,4.93,3.52,1.24,2.46,2.4,4.96,3.66,7.41,4.63,8.97,10.21,17.25,17.7,24.15,8.97,8.26,19.07,14.5,31.06,17.29,11.49,2.67,22.98,2.56,34.15-1.36,8.29-2.91,15.51-7.87,22.28-13.41,8.85-7.24,16.1-15.97,22.99-25.02.73-.95,1.44-1.92,2.16-2.88.04-.06.05-.14.13-.38-.68-.05-1.33-.13-1.97-.13-4.35-.04-8.71-.25-13.05-.06-5.83.27-10.92,2.49-15.18,6.55-5.01,4.76-11.07,7.79-17.35,10.47-4.11,1.75-8.34,2.99-12.84,3.12-8.15.24-15.39-2.42-21.66-7.4-4.84-3.85-9.35-8.12-13.9-12.31-3.21-2.95-6.26-6.07-9.37-9.11-.14-.13-.25-.29-.38-.45,5-3.18,11.1-2.68,15.41,1.28,3.79,3.49,7.43,7.16,11.34,10.51,4.24,3.64,9.12,6.2,14.71,7.14,6.34,1.07,12.34-.15,17.68-3.58,4.02-2.58,7.64-5.77,11.46-8.65,2.8-2.11,5.52-4.36,8.51-6.17,3.35-2.03,7.17-2.42,11.09-2.37,6.71.09,13.42,0,20.13-.17,2.43-.06,4.35-1.32,5.6-3.55,11.43-20.34,22.91-40.64,34.29-61,.78-1.4.9-3.18,1.36-4.89h69.47v17.92h-34.42v51.31h24.85v10.88h-25.31v66.49h-21.44v-66.23h-1.41c-8.04,0-16.08-.01-24.12,0-2.52,0-5.03.16-7.55.15-1.44,0-2.48.67-3.28,1.69-1.32,1.7-2.55,3.48-3.76,5.26-7.28,10.7-15.2,20.87-24.5,29.92-12.23,11.92-26.3,20.69-43.05,24.62-25.16,5.9-48.01.55-68.63-14.74-12.17-9.02-21.24-20.75-28.33-34-3.73-6.96-6.87-14.23-10.27-21.36-.05-.1-.05-.22-.08-.42ZM213.68,21.34c-9.19,15.91-18.41,31.86-27.67,47.89h29.27v-1.41c0-14.87-.01-29.74.03-44.6,0-1.19-.33-1.8-1.63-1.87Z" fill="#fff" stroke-width="0"/></g></svg>