<svg enable-background="new 0 0 1366 768" viewBox="0 0 1366 768" xmlns="http://www.w3.org/2000/svg"><g fill="#fff"><path d="m575.4 235.9c0 9.3-.5 18.4-1.4 26.9h-78.1c-.9-8.6-1.4-17.6-1.4-27 0-9.3.5-18.4 1.4-26.9h78.1c1 8.6 1.4 17.6 1.4 27zm12.2-27h51.8c2.2 8.6 3.4 17.6 3.4 27 0 9.3-1.2 18.3-3.4 26.9h-51.8c.9-8.7 1.4-17.7 1.4-26.9-.1-9.3-.5-18.3-1.4-27zm47.4-13.5h-49.1c-4.2-26.9-12.5-49.4-23.3-63.8 32.9 8.7 59.8 32.6 72.4 63.8zm-62.8 0h-74.4c2.6-15.3 6.5-28.9 11.4-39.9 4.4-9.9 9.4-17.1 14.1-21.7 4.7-4.5 8.6-5.8 11.7-5.8s7 1.3 11.7 5.8c4.8 4.5 9.7 11.8 14.1 21.7 4.9 11 8.8 24.6 11.4 39.9zm-88 0h-49.1c12.6-31.2 39.4-55.1 72.4-63.8-10.8 14.4-19.1 36.9-23.3 63.8zm-53.6 13.5h51.8c-.9 8.7-1.4 17.7-1.4 26.9 0 9.3.5 18.3 1.3 27h-51.8c-2.2-8.6-3.4-17.6-3.4-27 .1-9.3 1.3-18.3 3.5-26.9zm78.6 107.2c-4.9-10.9-8.8-24.5-11.4-39.8h74.4c-2.6 15.3-6.5 28.9-11.4 39.8-4.4 9.9-9.4 17.1-14.1 21.7-4.7 4.5-8.6 5.9-11.7 5.9s-7-1.3-11.7-5.8c-4.8-4.6-9.7-11.8-14.1-21.8zm-25-39.8c4.2 26.9 12.5 49.4 23.3 63.8-33-8.7-59.8-32.6-72.4-63.8zm150.8 0c-12.6 31.2-39.4 55.1-72.4 63.8 10.7-14.4 19-36.9 23.3-63.8z"/><path d="m495.2 241-66.1.3-78.8.5c-.8.1-1.8.8-2.2 1.8s-.1 2.4.6 3.2l22.7 23.3 22.7 23.3c1.1 1.1 2.5 1.9 3.9 2.1 1.4.3 2.9.1 4.3-.5 1.4-.7 2.5-1.7 3.3-3s1.2-2.9 1.2-4.5v-12.4-12.4h45.4 45.4"/><path d="m396.2 235.3.7-.2"/><path d="m574.8 230.7 66.1-.3 78.8-.5c.8-.1 1.8-.8 2.2-1.8s.1-2.4-.6-3.2l-22.7-23.3-22.7-23.3c-1.1-1.1-2.5-1.9-3.9-2.1-1.4-.3-2.9-.1-4.3.5s-2.5 1.7-3.3 3-1.2 2.9-1.2 4.5v12.4 12.4h-45.4-45.4"/><path d="m574.8 230.7 66.1-.3 78.8-.5c.8-.1 1.8-.8 2.2-1.8s.1-2.4-.6-3.2l-22.7-23.3-22.7-23.3c-1.1-1.1-2.5-1.9-3.9-2.1-1.4-.3-2.9-.1-4.3.5-1.4.7-2.5 1.7-3.3 3s-1.2 2.9-1.2 4.5v12.4 12.4h-45.4-45.4"/><g font-family="'Akhand-Bold'" font-size="36" letter-spacing="2"><text transform="translate(422.7048 104.4937)">ULTRA TRADING</text><text transform="translate(390.5785 398.6592)">INTERNATIONAL LTD</text></g></g></svg>