<?xml version="1.0" encoding="utf-8"?>
<!-- Generator: Adobe Illustrator 28.3.0, SVG Export Plug-In . SVG Version: 6.00 Build 0)  -->
<svg version="1.1" id="Layer_1" xmlns="http://www.w3.org/2000/svg" xmlns:xlink="http://www.w3.org/1999/xlink" x="0px" y="0px"
	 viewBox="0 0 1366 768" style="enable-background:new 0 0 1366 768;" xml:space="preserve">
<style type="text/css">
	.st0{fill:#FFFFFF;}
	.st1{font-family:'Akhand-Bold';}
	.st2{font-size:36px;}
	.st3{letter-spacing:2;}
</style>
<path d="M1171.9,342.8"/>
<path d="M224.7,235.4"/>
<g id="earth">
	<g>
		<path class="st0" d="M575.4,235.9c0,9.3-0.5,18.4-1.4,26.9l-78.1,0c-0.9-8.6-1.4-17.6-1.4-27c0-9.3,0.5-18.4,1.4-26.9l78.1,0
			C575,217.5,575.4,226.5,575.4,235.9z M587.6,208.9l51.8,0c2.2,8.6,3.4,17.6,3.4,27c0,9.3-1.2,18.3-3.4,26.9l-51.8,0
			c0.9-8.7,1.4-17.7,1.4-26.9C588.9,226.6,588.5,217.6,587.6,208.9z M635,195.4l-49.1,0c-4.2-26.9-12.5-49.4-23.3-63.8
			C595.5,140.3,622.4,164.2,635,195.4L635,195.4z M572.2,195.4l-74.4,0c2.6-15.3,6.5-28.9,11.4-39.9c4.4-9.9,9.4-17.1,14.1-21.7
			c4.7-4.5,8.6-5.8,11.7-5.8c3.1,0,7,1.3,11.7,5.8c4.8,4.5,9.7,11.8,14.1,21.7C565.7,166.5,569.6,180.1,572.2,195.4z M484.2,195.4
			l-49.1,0c12.6-31.2,39.4-55.1,72.4-63.8C496.7,146,488.4,168.5,484.2,195.4L484.2,195.4z M430.6,208.9l51.8,0
			c-0.9,8.7-1.4,17.7-1.4,26.9c0,9.3,0.5,18.3,1.3,27l-51.8,0c-2.2-8.6-3.4-17.6-3.4-27C427.2,226.5,428.4,217.5,430.6,208.9z
			 M509.2,316.1c-4.9-10.9-8.8-24.5-11.4-39.8l74.4,0c-2.6,15.3-6.5,28.9-11.4,39.8c-4.4,9.9-9.4,17.1-14.1,21.7
			c-4.7,4.5-8.6,5.9-11.7,5.9c-3.1,0-7-1.3-11.7-5.8C518.5,333.3,513.6,326.1,509.2,316.1L509.2,316.1z M484.2,276.3
			c4.2,26.9,12.5,49.4,23.3,63.8c-33-8.7-59.8-32.6-72.4-63.8L484.2,276.3z M635,276.3c-12.6,31.2-39.4,55.1-72.4,63.8
			c10.7-14.4,19-36.9,23.3-63.8L635,276.3L635,276.3z"/>
		<path class="st0" d="M495.2,241l-66.1,0.3l-78.8,0.5c-0.8,0.1-1.8,0.8-2.2,1.8c-0.4,1-0.1,2.4,0.6,3.2l22.7,23.3l22.7,23.3
			c1.1,1.1,2.5,1.9,3.9,2.1c1.4,0.3,2.9,0.1,4.3-0.5c1.4-0.7,2.5-1.7,3.3-3c0.8-1.3,1.2-2.9,1.2-4.5l0-12.4l0-12.4l45.4,0l45.4,0"/>
		<line class="st0" x1="396.2" y1="235.3" x2="396.9" y2="235.1"/>
		<path class="st0" d="M574.8,230.7l66.1-0.3l78.8-0.5c0.8-0.1,1.8-0.8,2.2-1.8c0.4-1,0.1-2.4-0.6-3.2l-22.7-23.3l-22.7-23.3
			c-1.1-1.1-2.5-1.9-3.9-2.1c-1.4-0.3-2.9-0.1-4.3,0.5s-2.5,1.7-3.3,3s-1.2,2.9-1.2,4.5l0,12.4l0,12.4l-45.4,0l-45.4,0"/>
		<path class="st0" d="M574.8,230.7l66.1-0.3l78.8-0.5c0.8-0.1,1.8-0.8,2.2-1.8c0.4-1,0.1-2.4-0.6-3.2l-22.7-23.3l-22.7-23.3
			c-1.1-1.1-2.5-1.9-3.9-2.1c-1.4-0.3-2.9-0.1-4.3,0.5c-1.4,0.7-2.5,1.7-3.3,3s-1.2,2.9-1.2,4.5l0,12.4l0,12.4l-45.4,0l-45.4,0"/>
	</g>
</g>
<text transform="matrix(1 0 0 1 422.7048 104.4937)" class="st0 st1 st2 st3">ULTRA TRADING</text>
<text transform="matrix(1 0 0 1 390.5785 398.6592)" class="st0 st1 st2 st3">INTERNATIONAL LTD</text>
</svg>
