<?xml version="1.0" encoding="UTF-8"?><svg id="a" xmlns="http://www.w3.org/2000/svg" viewBox="0 0 947.15 331.57"><g id="b"><path d="M350.7,161.64c0,9.35-.51,18.36-1.39,26.95h-78.07c-.93-8.6-1.39-17.61-1.39-26.96s.51-18.36,1.39-26.95h78.07c.93,8.6,1.39,17.61,1.39,26.96ZM362.83,134.69h51.84c2.23,8.64,3.41,17.65,3.41,26.96s-1.18,18.32-3.42,26.95h-51.84c.89-8.68,1.35-17.69,1.35-26.96s-.46-18.28-1.34-26.95ZM410.25,121.23h-49.14c-4.21-26.92-12.54-49.45-23.28-63.85,32.97,8.72,59.79,32.64,72.38,63.85h.04ZM347.46,121.22h-74.37c2.57-15.34,6.53-28.9,11.38-39.89,4.42-9.94,9.35-17.14,14.11-21.68,4.72-4.46,8.63-5.81,11.71-5.81s6.99,1.35,11.71,5.81c4.76,4.55,9.68,11.75,14.1,21.69,4.88,10.95,8.8,24.51,11.36,39.88ZM259.45,121.2h-49.14c12.64-31.21,39.42-55.12,72.44-63.83-10.74,14.4-19.08,36.93-23.3,63.83h0ZM205.89,134.67h51.84c-.89,8.68-1.35,17.69-1.35,26.96s.46,18.28,1.34,26.95h-51.84c-2.23-8.64-3.41-17.65-3.41-26.96s1.18-18.32,3.42-26.95ZM284.44,241.89c-4.88-10.95-8.8-24.51-11.36-39.84h74.37c-2.57,15.34-6.53,28.9-11.38,39.85-4.42,9.94-9.35,17.14-14.11,21.68-4.72,4.5-8.63,5.85-11.71,5.85s-6.99-1.35-11.71-5.81c-4.76-4.55-9.68-11.75-14.1-21.69v-.04ZM259.44,202.05c4.21,26.91,12.54,49.44,23.28,63.84-33.01-8.72-59.79-32.64-72.42-63.85h49.14ZM410.23,202.08c-12.64,31.2-39.42,55.12-72.4,63.83,10.74-14.4,19.04-36.93,23.3-63.83h49.1s0,0,0,0Z" style="fill:#000; stroke-width:0px;"/><path d="M270.46,166.79l-66.07.33-78.78.5c-.82.14-1.8.78-2.17,1.79s-.11,2.38.65,3.16l22.7,23.34,22.7,23.34c1.1,1.13,2.46,1.85,3.89,2.13s2.92.1,4.31-.55,2.53-1.72,3.33-3.04,1.25-2.88,1.25-4.51v-12.36s0-12.36,0-12.36h45.41s45.41.02,45.41.02" style="fill:#000; stroke-width:0px;"/><line x1="171.45" y1="161.11" x2="172.16" y2="160.85" style="fill:#000; stroke-width:0px;"/><path d="M350.08,156.52l66.07-.33,78.78-.5c.82-.14,1.8-.78,2.17-1.79s.11-2.38-.65-3.16l-22.7-23.34-22.7-23.34c-1.1-1.13-2.46-1.85-3.89-2.13s-2.92-.1-4.31.55-2.53,1.72-3.33,3.04-1.25,2.88-1.25,4.51v12.36s0,12.36,0,12.36h-45.41s-45.41-.02-45.41-.02" style="fill:#000; stroke-width:0px;"/><path d="M350.08,156.48l66.07-.33,78.78-.5c.82-.14,1.8-.78,2.17-1.79s.11-2.38-.65-3.16l-22.7-23.34-22.7-23.34c-1.1-1.13-2.46-1.85-3.89-2.13s-2.92-.1-4.31.55-2.53,1.72-3.33,3.04-1.25,2.88-1.25,4.51v12.36s0,12.36,0,12.36h-45.41s-45.41-.02-45.41-.02" style="fill:#000; stroke-width:0px;"/></g><path d="M213.62,5.73v18.86c0,3.53-2.2,6.05-6.8,6.05s-6.77-2.52-6.77-6.05V5.73h3.89v18.72c0,1.58.83,2.66,2.88,2.66s2.92-1.04,2.92-2.66V5.73h3.89Z" style="fill:#000; stroke-width:0px;"/><path d="M231.48,30.28h-10.8V5.73h3.92v21.17h6.88v3.38Z" style="fill:#000; stroke-width:0px;"/><path d="M239.08,9.15h-4.54v-3.42h12.99v3.42h-4.54v21.13h-3.92V9.15Z" style="fill:#000; stroke-width:0px;"/><path d="M256.57,21.02v9.25h-3.89V5.73h6.34c4.61,0,6.8,2.52,6.8,6.01v3.28c0,2.38-.97,4.25-3.02,5.26l3.64,10.01h-4.28l-3.1-9.25h-2.48ZM256.57,9.15v8.46h2.45c2.09,0,2.92-1.01,2.92-2.59v-3.24c0-1.62-.83-2.63-2.92-2.63h-2.45Z" style="fill:#000; stroke-width:0px;"/><path d="M281.34,5.73l5.36,24.55h-3.89l-1.33-6.3h-5.44l-1.33,6.3h-3.89l5.36-24.55h5.15ZM276.73,20.67h4.07l-.4-1.87c-1.19-5.62-1.48-7.6-1.62-9.36-.18,1.73-.5,3.82-1.66,9.36l-.4,1.87Z" style="fill:#000; stroke-width:0px;"/><path d="M303.19,9.15h-4.54v-3.42h12.99v3.42h-4.54v21.13h-3.92V9.15Z" style="fill:#000; stroke-width:0px;"/><path d="M320.69,21.02v9.25h-3.89V5.73h6.34c4.61,0,6.8,2.52,6.8,6.01v3.28c0,2.38-.97,4.25-3.02,5.26l3.64,10.01h-4.28l-3.1-9.25h-2.48ZM320.69,9.15v8.46h2.45c2.09,0,2.92-1.01,2.92-2.59v-3.24c0-1.62-.83-2.63-2.92-2.63h-2.45Z" style="fill:#000; stroke-width:0px;"/><path d="M345.45,5.73l5.36,24.55h-3.89l-1.33-6.3h-5.44l-1.33,6.3h-3.89l5.36-24.55h5.15ZM340.85,20.67h4.07l-.4-1.87c-1.19-5.62-1.48-7.6-1.62-9.36-.18,1.73-.5,3.82-1.66,9.36l-.4,1.87Z" style="fill:#000; stroke-width:0px;"/><path d="M363.06,5.73c4.61,0,6.77,2.52,6.77,6.01v12.53c0,3.53-2.16,6.01-6.77,6.01h-6.77V5.73h6.77ZM363.06,26.89c2.05,0,2.88-1.04,2.88-2.63v-12.49c0-1.62-.83-2.63-2.88-2.63h-2.88v17.75h2.88Z" style="fill:#000; stroke-width:0px;"/><path d="M376.7,30.28V5.73h3.92v24.55h-3.92Z" style="fill:#000; stroke-width:0px;"/><path d="M393.98,19.62c-1.91-4.93-2.88-7.96-2.88-7.96,0,0,.54,2.88.54,9.07v9.54h-3.82V5.73h4.07l4.14,10.58c2.12,5.4,2.88,7.96,2.88,7.96,0,0-.58-2.56-.58-9.14V5.73h3.85v24.55h-4l-4.21-10.65Z" style="fill:#000; stroke-width:0px;"/><path d="M409.06,11.41c0-3.49,2.16-6.05,6.77-6.05s6.77,2.56,6.77,6.05v1.76h-3.89v-1.58c0-1.58-.83-2.66-2.88-2.66s-2.88,1.04-2.88,2.66v12.81c0,1.62.76,2.66,2.81,2.66s2.95-1.04,2.95-2.66v-4.18h-2.38v-3.38h6.26v13.43h-3.71v-2.02c-.36.72-1.51,2.27-4.14,2.27-3.96,0-5.69-2.52-5.69-5.9v-13.21Z" style="fill:#000; stroke-width:0px;"/><path d="M168.11,324.44v-24.55h3.92v24.55h-3.92Z" style="fill:#000; stroke-width:0px;"/><path d="M185.38,313.79c-1.91-4.93-2.88-7.96-2.88-7.96,0,0,.54,2.88.54,9.07v9.54h-3.82v-24.55h4.07l4.14,10.58c2.12,5.4,2.88,7.96,2.88,7.96,0,0-.58-2.56-.58-9.14v-9.39h3.85v24.55h-4l-4.21-10.65Z" style="fill:#000; stroke-width:0px;"/><path d="M203.28,303.31h-4.54v-3.42h12.99v3.42h-4.54v21.13h-3.92v-21.13Z" style="fill:#000; stroke-width:0px;"/><path d="M228.37,324.44h-11.48v-24.55h11.48v3.42h-7.6v7.02h6.59v3.42h-6.59v7.31h7.6v3.38Z" style="fill:#000; stroke-width:0px;"/><path d="M238.2,315.19v9.25h-3.89v-24.55h6.34c4.61,0,6.8,2.52,6.8,6.01v3.28c0,2.38-.97,4.25-3.02,5.26l3.64,10.01h-4.28l-3.1-9.25h-2.48ZM238.2,303.31v8.46h2.45c2.09,0,2.92-1.01,2.92-2.59v-3.24c0-1.62-.83-2.63-2.92-2.63h-2.45Z" style="fill:#000; stroke-width:0px;"/><path d="M260.37,313.79c-1.91-4.93-2.88-7.96-2.88-7.96,0,0,.54,2.88.54,9.07v9.54h-3.82v-24.55h4.07l4.14,10.58c2.12,5.4,2.88,7.96,2.88,7.96,0,0-.58-2.56-.58-9.14v-9.39h3.85v24.55h-4l-4.21-10.65Z" style="fill:#000; stroke-width:0px;"/><path d="M284.56,299.89l5.36,24.55h-3.89l-1.33-6.3h-5.44l-1.33,6.3h-3.89l5.36-24.55h5.15ZM279.96,314.83h4.07l-.4-1.87c-1.19-5.62-1.48-7.6-1.62-9.36-.18,1.73-.5,3.82-1.66,9.36l-.4,1.87Z" style="fill:#000; stroke-width:0px;"/><path d="M297.85,303.31h-4.54v-3.42h12.99v3.42h-4.54v21.13h-3.92v-21.13Z" style="fill:#000; stroke-width:0px;"/><path d="M311.46,324.44v-24.55h3.92v24.55h-3.92Z" style="fill:#000; stroke-width:0px;"/><path d="M335.75,318.75c0,3.53-2.16,6.05-6.77,6.05s-6.77-2.52-6.77-6.05v-13.17c0-3.49,2.16-6.05,6.77-6.05s6.77,2.56,6.77,6.05v13.17ZM331.87,305.76c0-1.58-.83-2.66-2.88-2.66s-2.88,1.04-2.88,2.66v12.81c0,1.62.79,2.7,2.88,2.7s2.88-1.08,2.88-2.7v-12.81Z" style="fill:#000; stroke-width:0px;"/><path d="M348.79,313.79c-1.91-4.93-2.88-7.96-2.88-7.96,0,0,.54,2.88.54,9.07v9.54h-3.82v-24.55h4.07l4.14,10.58c2.12,5.4,2.88,7.96,2.88,7.96,0,0-.58-2.56-.58-9.14v-9.39h3.85v24.55h-4l-4.21-10.65Z" style="fill:#000; stroke-width:0px;"/><path d="M372.98,299.89l5.36,24.55h-3.89l-1.33-6.3h-5.44l-1.33,6.3h-3.89l5.36-24.55h5.15ZM368.37,314.83h4.07l-.4-1.87c-1.19-5.62-1.48-7.6-1.62-9.36-.18,1.73-.5,3.82-1.66,9.36l-.4,1.87Z" style="fill:#000; stroke-width:0px;"/><path d="M394.61,324.44h-10.8v-24.55h3.92v21.17h6.88v3.38Z" style="fill:#000; stroke-width:0px;"/><path d="M419.13,324.44h-10.8v-24.55h3.92v21.17h6.88v3.38Z" style="fill:#000; stroke-width:0px;"/><path d="M426.73,303.31h-4.54v-3.42h12.99v3.42h-4.54v21.13h-3.92v-21.13Z" style="fill:#000; stroke-width:0px;"/><path d="M447.1,299.89c4.61,0,6.77,2.52,6.77,6.01v12.53c0,3.53-2.16,6.01-6.77,6.01h-6.77v-24.55h6.77ZM447.1,321.06c2.05,0,2.88-1.04,2.88-2.63v-12.49c0-1.62-.83-2.63-2.88-2.63h-2.88v17.75h2.88Z" style="fill:#000; stroke-width:0px;"/></svg>